<?xml version="1.0" encoding="iso-8859-1"?>
<!-- Generator: Adobe Illustrator 16.0.0, SVG Export Plug-In . SVG Version: 6.00 Build 0)  -->
<!DOCTYPE svg PUBLIC "-//W3C//DTD SVG 1.1//EN" "http://www.w3.org/Graphics/SVG/1.1/DTD/svg11.dtd">
<svg version="1.1" id="Capa_1" xmlns="http://www.w3.org/2000/svg" xmlns:xlink="http://www.w3.org/1999/xlink" x="0px" y="0px"
	 width="87.016px" height="87.016px" viewBox="0 0 87.016 87.016" style="enable-background:new 0 0 87.016 87.016;"
	 xml:space="preserve">
<g>
	<g>
		<polygon points="61.9,38.212 67.567,44.913 58.539,44.913 59.942,46.572 60.6,47.343 74.812,64.132 52.988,64.132 48.779,69.604 
			64.241,69.604 64.241,84.106 66.797,84.106 66.797,69.604 82.252,69.604 72.111,57.619 77.741,57.619 68.392,46.572 
			74.224,46.572 66.54,37.49 70.113,37.49 64.206,30.509 60.004,35.969 61.284,37.49 		"/>
		<polygon points="46.031,62.688 70.818,62.688 54.556,43.472 63.591,43.472 48.602,25.754 57.938,25.754 45.621,11.197 
			51.353,11.197 41.889,0 33.272,11.197 39.088,11.197 27.885,25.754 37.048,25.754 23.432,43.472 31.929,43.472 17.148,62.688 
			41.945,62.688 41.945,84.768 40.588,84.768 39.067,84.768 18.018,84.768 18.018,87.016 39.067,87.016 40.588,87.016 
			70.798,87.016 70.798,84.768 46.031,84.768 		"/>
		<polygon points="20.232,69.604 20.232,84.106 22.779,84.106 22.779,69.604 38.234,69.604 33.607,64.132 14.055,64.132 
			26.053,48.54 24.381,46.572 27.563,46.572 28.825,44.934 28.804,44.913 20.338,44.913 24.367,39.667 22.528,37.49 26.046,37.49 
			26.07,37.451 20.201,30.509 14.825,37.49 18.449,37.49 11.464,46.572 17.179,46.572 8.682,57.619 13.984,57.619 4.764,69.604 		
			"/>
	</g>
</g>
<g>
</g>
<g>
</g>
<g>
</g>
<g>
</g>
<g>
</g>
<g>
</g>
<g>
</g>
<g>
</g>
<g>
</g>
<g>
</g>
<g>
</g>
<g>
</g>
<g>
</g>
<g>
</g>
<g>
</g>
</svg>
